# xmcd CD database file
#
# Track frame offsets:
#	150
#	15268
#	37088
#	49495
#	65882
#	79247
#	92204
#	106987
#	118636
#	128347
#	142251
#	162080
#	180063
#	196417
#
# Disc length: 2846 seconds
#
# Revision: 0
# Processed by: cddbd v1.5.1PL0 Copyright (c) Steve Scherf et al.
# Submitted via: CDex 1.60beta1
#
DISCID=bc0b1c0e
DTITLE=Count Basie - Count Basie and Friends: 100th Birthday Bash [CD2]
DYEAR=2004
DGENRE=Jazz
TTITLE0=Jumpin' at the Woodside [Stereo]
TTITLE1=Li'l Darlin' [Mono Version]
TTITLE2=If I Were a Bell [Stereo]
TTITLE3=Splanky [Mono Version]
TTITLE4=Ain't No Use [Stereo]
TTITLE5=Until I Met You [Stereo]
TTITLE6=She's Funny That Way [Stereo]
TTITLE7=The Late Late Show [Stereo]
TTITLE8=Jeepers Creepers [Stereo]
TTITLE9=Jelly Jelly [Stereo]
TTITLE10=Katy Do [Stereo]
TTITLE11=Save Your Love for Me [Stereo]
TTITLE12=April in Paris [Stereo][Live]
TTITLE13=One O'Clock Jump [Stereo][Live]
EXTD=YEAR: 2004
EXTT0=
EXTT1=
EXTT2=
EXTT3=
EXTT4=
EXTT5=
EXTT6=
EXTT7=
EXTT8=
EXTT9=
EXTT10=
EXTT11=
EXTT12=
EXTT13=
PLAYORDER=
